<svg width="462" height="81" viewBox="0 0 462 81" fill="none" xmlns="http://www.w3.org/2000/svg">
<g opacity="0.07">
<path d="M150.627 2.598C150.627 4.03191 151.791 5.196 153.225 5.196C154.659 5.196 155.823 4.03191 155.823 2.598C155.823 1.16409 154.659 0 153.225 0C151.791 0 150.627 1.16409 150.627 2.598Z" fill="white"/>
<path d="M131.709 2.598C131.709 4.03191 132.873 5.196 134.307 5.196C135.741 5.196 136.905 4.03191 136.905 2.598C136.905 1.16409 135.741 0 134.307 0C132.873 0 131.709 1.16409 131.709 2.598Z" fill="white"/>
<path d="M112.791 2.598C112.791 4.03191 113.955 5.196 115.389 5.196C116.822 5.196 117.987 4.03191 117.987 2.598C117.987 1.16409 116.822 0 115.389 0C113.951 0 112.791 1.16409 112.791 2.598Z" fill="white"/>
<path d="M93.867 2.598C93.867 4.03191 95.0319 5.196 96.4669 5.196C97.9019 5.196 99.063 4.03191 99.063 2.598C99.063 1.16409 97.9019 0 96.4669 0C95.0281 0 93.867 1.16409 93.867 2.598Z" fill="white"/>
<path d="M74.9489 2.598C74.9489 4.03191 76.1091 5.196 77.5469 5.196C78.9808 5.196 80.1449 4.03191 80.1449 2.598C80.1449 1.16409 78.9808 0 77.5469 0C76.113 0 74.9489 1.16409 74.9489 2.598Z" fill="white"/>
<path d="M56.0308 2.598C56.0308 4.03191 57.1949 5.196 58.6288 5.196C60.0627 5.196 61.2268 4.03191 61.2268 2.598C61.2268 1.16409 60.0627 0 58.6288 0C57.1949 0 56.0308 1.16409 56.0308 2.598Z" fill="white"/>
<path d="M37.3539 2.598C37.3539 4.03191 38.518 5.196 39.9519 5.196C41.3858 5.196 42.5499 4.03191 42.5499 2.598C42.5499 1.16409 41.3858 0 39.9519 0C38.518 0 37.3539 1.16409 37.3539 2.598Z" fill="white"/>
<path d="M18.6769 2.598C18.6769 4.03191 19.841 5.196 21.2749 5.196C22.7088 5.196 23.8729 4.03191 23.8729 2.598C23.8729 1.16409 22.7088 0 21.2749 0C19.841 0 18.6769 1.16409 18.6769 2.598Z" fill="white"/>
<path d="M-1.62125e-05 2.598C-1.62125e-05 4.03191 1.16407 5.196 2.59798 5.196C4.0319 5.196 5.19598 4.03191 5.19598 2.598C5.19598 1.16409 4.0319 0 2.59798 0C1.16407 0 -1.62125e-05 1.16409 -1.62125e-05 2.598Z" fill="white"/>
<path d="M150.627 21.5162C150.627 22.9501 151.791 24.1142 153.225 24.1142C154.659 24.1142 155.823 22.9501 155.823 21.5162C155.823 20.0823 154.659 18.9182 153.225 18.9182C151.791 18.9182 150.627 20.0823 150.627 21.5162Z" fill="white"/>
<path d="M131.709 21.5162C131.709 22.9501 132.873 24.1142 134.307 24.1142C135.74 24.1142 136.905 22.9501 136.905 21.5162C136.905 20.0823 135.74 18.9182 134.307 18.9182C132.873 18.9182 131.709 20.0823 131.709 21.5162Z" fill="white"/>
<path d="M112.791 21.5162C112.791 22.9501 113.955 24.1142 115.389 24.1142C116.822 24.1142 117.987 22.9501 117.987 21.5162C117.987 20.0823 116.822 18.9182 115.389 18.9182C113.951 18.9182 112.791 20.0823 112.791 21.5162Z" fill="white"/>
<path d="M93.867 21.5162C93.867 22.9501 95.0319 24.1142 96.4669 24.1142C97.9019 24.1142 99.063 22.9501 99.063 21.5162C99.063 20.0823 97.9019 18.9182 96.4669 18.9182C95.0281 18.9182 93.867 20.0823 93.867 21.5162Z" fill="white"/>
<path d="M74.9489 21.5162C74.9489 22.9501 76.1091 24.1142 77.5469 24.1142C78.9808 24.1142 80.1449 22.9501 80.1449 21.5162C80.1449 20.0823 78.9808 18.9182 77.5469 18.9182C76.113 18.9182 74.9489 20.0823 74.9489 21.5162Z" fill="white"/>
<path d="M56.0308 21.5162C56.0308 22.9501 57.1949 24.1142 58.6288 24.1142C60.0627 24.1142 61.2268 22.9501 61.2268 21.5162C61.2268 20.0823 60.0627 18.9182 58.6288 18.9182C57.1949 18.9182 56.0308 20.0823 56.0308 21.5162Z" fill="white"/>
<path d="M37.3539 21.5162C37.3539 22.9501 38.518 24.1142 39.9519 24.1142C41.3858 24.1142 42.5499 22.9501 42.5499 21.5162C42.5499 20.0823 41.3858 18.9182 39.9519 18.9182C38.518 18.9182 37.3539 20.0823 37.3539 21.5162Z" fill="white"/>
<path d="M18.6769 21.5162C18.6769 22.9501 19.841 24.1142 21.2749 24.1142C22.7088 24.1142 23.8729 22.9501 23.8729 21.5162C23.8729 20.0823 22.7088 18.9182 21.2749 18.9182C19.841 18.9182 18.6769 20.0823 18.6769 21.5162Z" fill="white"/>
<path d="M-1.62125e-05 21.5162C-1.62125e-05 22.9501 1.16407 24.1142 2.59798 24.1142C4.0319 24.1142 5.19598 22.9501 5.19598 21.5162C5.19598 20.0823 4.0319 18.9182 2.59798 18.9182C1.16407 18.9182 -1.62125e-05 20.0823 -1.62125e-05 21.5162Z" fill="white"/>
<path d="M150.627 40.4341C150.627 41.868 151.791 43.0321 153.225 43.0321C154.659 43.0321 155.823 41.868 155.823 40.4341C155.823 39.0001 154.659 37.8361 153.225 37.8361C151.791 37.8361 150.627 39.0001 150.627 40.4341Z" fill="white"/>
<path d="M131.709 40.4341C131.709 41.868 132.873 43.0321 134.307 43.0321C135.74 43.0321 136.905 41.868 136.905 40.4341C136.905 39.0001 135.74 37.8361 134.307 37.8361C132.873 37.8361 131.709 39.0001 131.709 40.4341Z" fill="white"/>
<path d="M112.791 40.4341C112.791 41.868 113.955 43.0321 115.389 43.0321C116.822 43.0321 117.987 41.868 117.987 40.4341C117.987 39.0001 116.822 37.8361 115.389 37.8361C113.951 37.8361 112.791 39.0001 112.791 40.4341Z" fill="white"/>
<path d="M93.867 40.4341C93.867 41.868 95.0319 43.0321 96.4669 43.0321C97.9019 43.0321 99.063 41.868 99.063 40.4341C99.063 39.0001 97.9019 37.8361 96.4669 37.8361C95.0281 37.8361 93.867 39.0001 93.867 40.4341Z" fill="white"/>
<path d="M74.9489 40.4341C74.9489 41.868 76.1091 43.0321 77.5469 43.0321C78.9808 43.0321 80.1449 41.868 80.1449 40.4341C80.1449 39.0001 78.9808 37.8361 77.5469 37.8361C76.113 37.8361 74.9489 39.0001 74.9489 40.4341Z" fill="white"/>
<path d="M56.0308 40.4341C56.0308 41.868 57.1949 43.0321 58.6288 43.0321C60.0627 43.0321 61.2268 41.868 61.2268 40.4341C61.2268 39.0001 60.0627 37.8361 58.6288 37.8361C57.1949 37.8361 56.0308 39.0001 56.0308 40.4341Z" fill="white"/>
<path d="M37.3539 40.4341C37.3539 41.868 38.518 43.0321 39.9519 43.0321C41.3858 43.0321 42.5499 41.868 42.5499 40.4341C42.5499 39.0001 41.3858 37.8361 39.9519 37.8361C38.518 37.8361 37.3539 39.0001 37.3539 40.4341Z" fill="white"/>
<path d="M18.6769 40.4341C18.6769 41.868 19.841 43.0321 21.2749 43.0321C22.7088 43.0321 23.8729 41.868 23.8729 40.4341C23.8729 39.0001 22.7088 37.8361 21.2749 37.8361C19.841 37.8361 18.6769 39.0001 18.6769 40.4341Z" fill="white"/>
<path d="M-1.62125e-05 40.4341C-1.62125e-05 41.868 1.16407 43.0321 2.59798 43.0321C4.0319 43.0321 5.19598 41.868 5.19598 40.4341C5.19598 39.0001 4.0319 37.8361 2.59798 37.8361C1.16407 37.8361 -1.62125e-05 39.0001 -1.62125e-05 40.4341Z" fill="white"/>
<path d="M150.627 59.3523C150.627 60.7862 151.791 61.9503 153.225 61.9503C154.659 61.9503 155.823 60.7862 155.823 59.3523C155.823 57.9184 154.659 56.7543 153.225 56.7543C151.791 56.7581 150.627 57.9184 150.627 59.3523Z" fill="white"/>
<path d="M131.709 59.3523C131.709 60.7862 132.873 61.9503 134.307 61.9503C135.74 61.9503 136.905 60.7862 136.905 59.3523C136.905 57.9184 135.74 56.7543 134.307 56.7543C132.873 56.7581 131.709 57.9184 131.709 59.3523Z" fill="white"/>
<path d="M112.791 59.3523C112.791 60.7862 113.955 61.9503 115.389 61.9503C116.822 61.9503 117.987 60.7862 117.987 59.3523C117.987 57.9184 116.822 56.7543 115.389 56.7543C113.951 56.7581 112.791 57.9184 112.791 59.3523Z" fill="white"/>
<path d="M93.867 59.3523C93.867 60.7862 95.0319 61.9503 96.4669 61.9503C97.9019 61.9503 99.063 60.7862 99.063 59.3523C99.063 57.9184 97.9019 56.7543 96.4669 56.7543C95.0281 56.7581 93.867 57.9184 93.867 59.3523Z" fill="white"/>
<path d="M74.9489 59.3523C74.9489 60.7862 76.1091 61.9503 77.5469 61.9503C78.9808 61.9503 80.1449 60.7862 80.1449 59.3523C80.1449 57.9184 78.9808 56.7543 77.5469 56.7543C76.113 56.7581 74.9489 57.9184 74.9489 59.3523Z" fill="white"/>
<path d="M56.0308 59.3523C56.0308 60.7862 57.1949 61.9503 58.6288 61.9503C60.0627 61.9503 61.2268 60.7862 61.2268 59.3523C61.2268 57.9184 60.0627 56.7543 58.6288 56.7543C57.1949 56.7581 56.0308 57.9184 56.0308 59.3523Z" fill="white"/>
<path d="M37.3539 59.3523C37.3539 60.7862 38.518 61.9503 39.9519 61.9503C41.3858 61.9503 42.5499 60.7862 42.5499 59.3523C42.5499 57.9184 41.3858 56.7543 39.9519 56.7543C38.518 56.7581 37.3539 57.9184 37.3539 59.3523Z" fill="white"/>
<path d="M18.6769 59.3523C18.6769 60.7862 19.841 61.9503 21.2749 61.9503C22.7088 61.9503 23.8729 60.7862 23.8729 59.3523C23.8729 57.9184 22.7088 56.7543 21.2749 56.7543C19.841 56.7581 18.6769 57.9184 18.6769 59.3523Z" fill="white"/>
<path d="M-1.62125e-05 59.3523C-1.62125e-05 60.7862 1.16407 61.9503 2.59798 61.9503C4.0319 61.9503 5.19598 60.7862 5.19598 59.3523C5.19598 57.9184 4.0319 56.7543 2.59798 56.7543C1.16407 56.7581 -1.62125e-05 57.9184 -1.62125e-05 59.3523Z" fill="white"/>
<path d="M150.627 78.2759C150.627 79.7098 151.791 80.8739 153.225 80.8739C154.659 80.8739 155.823 79.7098 155.823 78.2759C155.823 76.8419 154.659 75.6779 153.225 75.6779C151.791 75.6779 150.627 76.8419 150.627 78.2759Z" fill="white"/>
<path d="M131.709 78.2759C131.709 79.7098 132.873 80.8739 134.307 80.8739C135.74 80.8739 136.905 79.7098 136.905 78.2759C136.905 76.8419 135.74 75.6779 134.307 75.6779C132.873 75.6779 131.709 76.8419 131.709 78.2759Z" fill="white"/>
<path d="M112.791 78.2759C112.791 79.7098 113.955 80.8739 115.389 80.8739C116.822 80.8739 117.987 79.7098 117.987 78.2759C117.987 76.8419 116.822 75.6779 115.389 75.6779C113.951 75.6779 112.791 76.8419 112.791 78.2759Z" fill="white"/>
<path d="M93.867 78.2759C93.867 79.7098 95.0319 80.8739 96.4669 80.8739C97.9019 80.8739 99.063 79.7098 99.063 78.2759C99.063 76.8419 97.9019 75.6779 96.4669 75.6779C95.0281 75.6779 93.867 76.8419 93.867 78.2759Z" fill="white"/>
<path d="M74.9489 78.2759C74.9489 79.7098 76.1091 80.8739 77.5469 80.8739C78.9808 80.8739 80.1449 79.7098 80.1449 78.2759C80.1449 76.8419 78.9808 75.6779 77.5469 75.6779C76.113 75.6779 74.9489 76.8419 74.9489 78.2759Z" fill="white"/>
<path d="M56.0308 78.2759C56.0308 79.7098 57.1949 80.8739 58.6288 80.8739C60.0627 80.8739 61.2268 79.7098 61.2268 78.2759C61.2268 76.8419 60.0627 75.6779 58.6288 75.6779C57.1949 75.6779 56.0308 76.8419 56.0308 78.2759Z" fill="white"/>
<path d="M37.3539 78.2759C37.3539 79.7098 38.518 80.8739 39.9519 80.8739C41.3858 80.8739 42.5499 79.7098 42.5499 78.2759C42.5499 76.8419 41.3858 75.6779 39.9519 75.6779C38.518 75.6779 37.3539 76.8419 37.3539 78.2759Z" fill="white"/>
<path d="M18.6769 78.2759C18.6769 79.7098 19.841 80.8739 21.2749 80.8739C22.7088 80.8739 23.8729 79.7098 23.8729 78.2759C23.8729 76.8419 22.7088 75.6779 21.2749 75.6779C19.841 75.6779 18.6769 76.8419 18.6769 78.2759Z" fill="white"/>
<path d="M-1.62125e-05 78.2759C-1.62125e-05 79.7098 1.16407 80.8739 2.59798 80.8739C4.0319 80.8739 5.19598 79.7098 5.19598 78.2759C5.19598 76.8419 4.0319 75.6779 2.59798 75.6779C1.16407 75.6779 -1.62125e-05 76.8419 -1.62125e-05 78.2759Z" fill="white"/>
<path d="M452.79 2.598C452.79 4.03191 453.955 5.196 455.388 5.196C456.822 5.196 457.986 4.03191 457.986 2.598C457.986 1.16409 456.822 0 455.388 0C453.951 0 452.79 1.16409 452.79 2.598Z" fill="white"/>
<path d="M433.867 2.598C433.867 4.03191 435.032 5.196 436.467 5.196C437.902 5.196 439.063 4.03191 439.063 2.598C439.063 1.16409 437.902 0 436.467 0C435.028 0 433.867 1.16409 433.867 2.598Z" fill="white"/>
<path d="M414.949 2.598C414.949 4.03191 416.109 5.196 417.547 5.196C418.981 5.196 420.145 4.03191 420.145 2.598C420.145 1.16409 418.981 0 417.547 0C416.113 0 414.949 1.16409 414.949 2.598Z" fill="white"/>
<path d="M396.031 2.598C396.031 4.03191 397.195 5.196 398.629 5.196C400.063 5.196 401.227 4.03191 401.227 2.598C401.227 1.16409 400.063 0 398.629 0C397.195 0 396.031 1.16409 396.031 2.598Z" fill="white"/>
<path d="M377.354 2.598C377.354 4.03191 378.518 5.196 379.952 5.196C381.386 5.196 382.55 4.03191 382.55 2.598C382.55 1.16409 381.386 0 379.952 0C378.518 0 377.354 1.16409 377.354 2.598Z" fill="white"/>
<path d="M358.677 2.598C358.677 4.03191 359.841 5.196 361.275 5.196C362.709 5.196 363.873 4.03191 363.873 2.598C363.873 1.16409 362.709 0 361.275 0C359.841 0 358.677 1.16409 358.677 2.598Z" fill="white"/>
<path d="M340 2.598C340 4.03191 341.164 5.196 342.598 5.196C344.032 5.196 345.196 4.03191 345.196 2.598C345.196 1.16409 344.032 0 342.598 0C341.164 0 340 1.16409 340 2.598Z" fill="white"/>
<path d="M452.79 21.5162C452.79 22.9501 453.955 24.1142 455.388 24.1142C456.822 24.1142 457.986 22.9501 457.986 21.5162C457.986 20.0823 456.822 18.9182 455.388 18.9182C453.951 18.9182 452.79 20.0823 452.79 21.5162Z" fill="white"/>
<path d="M433.867 21.5162C433.867 22.9501 435.032 24.1142 436.467 24.1142C437.902 24.1142 439.063 22.9501 439.063 21.5162C439.063 20.0823 437.902 18.9182 436.467 18.9182C435.028 18.9182 433.867 20.0823 433.867 21.5162Z" fill="white"/>
<path d="M414.949 21.5162C414.949 22.9501 416.109 24.1142 417.547 24.1142C418.981 24.1142 420.145 22.9501 420.145 21.5162C420.145 20.0823 418.981 18.9182 417.547 18.9182C416.113 18.9182 414.949 20.0823 414.949 21.5162Z" fill="white"/>
<path d="M396.031 21.5162C396.031 22.9501 397.195 24.1142 398.629 24.1142C400.063 24.1142 401.227 22.9501 401.227 21.5162C401.227 20.0823 400.063 18.9182 398.629 18.9182C397.195 18.9182 396.031 20.0823 396.031 21.5162Z" fill="white"/>
<path d="M377.354 21.5162C377.354 22.9501 378.518 24.1142 379.952 24.1142C381.386 24.1142 382.55 22.9501 382.55 21.5162C382.55 20.0823 381.386 18.9182 379.952 18.9182C378.518 18.9182 377.354 20.0823 377.354 21.5162Z" fill="white"/>
<path d="M358.677 21.5162C358.677 22.9501 359.841 24.1142 361.275 24.1142C362.709 24.1142 363.873 22.9501 363.873 21.5162C363.873 20.0823 362.709 18.9182 361.275 18.9182C359.841 18.9182 358.677 20.0823 358.677 21.5162Z" fill="white"/>
<path d="M340 21.5162C340 22.9501 341.164 24.1142 342.598 24.1142C344.032 24.1142 345.196 22.9501 345.196 21.5162C345.196 20.0823 344.032 18.9182 342.598 18.9182C341.164 18.9182 340 20.0823 340 21.5162Z" fill="white"/>
<path d="M452.79 40.4341C452.79 41.868 453.955 43.0321 455.388 43.0321C456.822 43.0321 457.986 41.868 457.986 40.4341C457.986 39.0001 456.822 37.8361 455.388 37.8361C453.951 37.8361 452.79 39.0001 452.79 40.4341Z" fill="white"/>
<path d="M433.867 40.4341C433.867 41.868 435.032 43.0321 436.467 43.0321C437.902 43.0321 439.063 41.868 439.063 40.4341C439.063 39.0001 437.902 37.8361 436.467 37.8361C435.028 37.8361 433.867 39.0001 433.867 40.4341Z" fill="white"/>
<path d="M414.949 40.4341C414.949 41.868 416.109 43.0321 417.547 43.0321C418.981 43.0321 420.145 41.868 420.145 40.4341C420.145 39.0001 418.981 37.8361 417.547 37.8361C416.113 37.8361 414.949 39.0001 414.949 40.4341Z" fill="white"/>
<path d="M396.031 40.4341C396.031 41.868 397.195 43.0321 398.629 43.0321C400.063 43.0321 401.227 41.868 401.227 40.4341C401.227 39.0001 400.063 37.8361 398.629 37.8361C397.195 37.8361 396.031 39.0001 396.031 40.4341Z" fill="white"/>
<path d="M377.354 40.4341C377.354 41.868 378.518 43.0321 379.952 43.0321C381.386 43.0321 382.55 41.868 382.55 40.4341C382.55 39.0001 381.386 37.8361 379.952 37.8361C378.518 37.8361 377.354 39.0001 377.354 40.4341Z" fill="white"/>
<path d="M358.677 40.4341C358.677 41.868 359.841 43.0321 361.275 43.0321C362.709 43.0321 363.873 41.868 363.873 40.4341C363.873 39.0001 362.709 37.8361 361.275 37.8361C359.841 37.8361 358.677 39.0001 358.677 40.4341Z" fill="white"/>
<path d="M340 40.4341C340 41.868 341.164 43.0321 342.598 43.0321C344.032 43.0321 345.196 41.868 345.196 40.4341C345.196 39.0001 344.032 37.8361 342.598 37.8361C341.164 37.8361 340 39.0001 340 40.4341Z" fill="white"/>
<path d="M452.79 59.3523C452.79 60.7862 453.955 61.9503 455.388 61.9503C456.822 61.9503 457.986 60.7862 457.986 59.3523C457.986 57.9184 456.822 56.7543 455.388 56.7543C453.951 56.7581 452.79 57.9184 452.79 59.3523Z" fill="white"/>
<path d="M433.867 59.3523C433.867 60.7862 435.032 61.9503 436.467 61.9503C437.902 61.9503 439.063 60.7862 439.063 59.3523C439.063 57.9184 437.902 56.7543 436.467 56.7543C435.028 56.7581 433.867 57.9184 433.867 59.3523Z" fill="white"/>
<path d="M414.949 59.3523C414.949 60.7862 416.109 61.9503 417.547 61.9503C418.981 61.9503 420.145 60.7862 420.145 59.3523C420.145 57.9184 418.981 56.7543 417.547 56.7543C416.113 56.7581 414.949 57.9184 414.949 59.3523Z" fill="white"/>
<path d="M396.031 59.3523C396.031 60.7862 397.195 61.9503 398.629 61.9503C400.063 61.9503 401.227 60.7862 401.227 59.3523C401.227 57.9184 400.063 56.7543 398.629 56.7543C397.195 56.7581 396.031 57.9184 396.031 59.3523Z" fill="white"/>
<path d="M377.354 59.3523C377.354 60.7862 378.518 61.9503 379.952 61.9503C381.386 61.9503 382.55 60.7862 382.55 59.3523C382.55 57.9184 381.386 56.7543 379.952 56.7543C378.518 56.7581 377.354 57.9184 377.354 59.3523Z" fill="white"/>
<path d="M358.677 59.3523C358.677 60.7862 359.841 61.9503 361.275 61.9503C362.709 61.9503 363.873 60.7862 363.873 59.3523C363.873 57.9184 362.709 56.7543 361.275 56.7543C359.841 56.7581 358.677 57.9184 358.677 59.3523Z" fill="white"/>
<path d="M340 59.3523C340 60.7862 341.164 61.9503 342.598 61.9503C344.032 61.9503 345.196 60.7862 345.196 59.3523C345.196 57.9184 344.032 56.7543 342.598 56.7543C341.164 56.7581 340 57.9184 340 59.3523Z" fill="white"/>
<path d="M452.79 78.2759C452.79 79.7098 453.955 80.8739 455.388 80.8739C456.822 80.8739 457.986 79.7098 457.986 78.2759C457.986 76.8419 456.822 75.6779 455.388 75.6779C453.951 75.6779 452.79 76.8419 452.79 78.2759Z" fill="white"/>
<path d="M433.867 78.2759C433.867 79.7098 435.032 80.8739 436.467 80.8739C437.902 80.8739 439.063 79.7098 439.063 78.2759C439.063 76.8419 437.902 75.6779 436.467 75.6779C435.028 75.6779 433.867 76.8419 433.867 78.2759Z" fill="white"/>
<path d="M414.949 78.2759C414.949 79.7098 416.109 80.8739 417.547 80.8739C418.981 80.8739 420.145 79.7098 420.145 78.2759C420.145 76.8419 418.981 75.6779 417.547 75.6779C416.113 75.6779 414.949 76.8419 414.949 78.2759Z" fill="white"/>
<path d="M396.031 78.2759C396.031 79.7098 397.195 80.8739 398.629 80.8739C400.063 80.8739 401.227 79.7098 401.227 78.2759C401.227 76.8419 400.063 75.6779 398.629 75.6779C397.195 75.6779 396.031 76.8419 396.031 78.2759Z" fill="white"/>
<path d="M377.354 78.2759C377.354 79.7098 378.518 80.8739 379.952 80.8739C381.386 80.8739 382.55 79.7098 382.55 78.2759C382.55 76.8419 381.386 75.6779 379.952 75.6779C378.518 75.6779 377.354 76.8419 377.354 78.2759Z" fill="white"/>
<path d="M358.677 78.2759C358.677 79.7098 359.841 80.8739 361.275 80.8739C362.709 80.8739 363.873 79.7098 363.873 78.2759C363.873 76.8419 362.709 75.6779 361.275 75.6779C359.841 75.6779 358.677 76.8419 358.677 78.2759Z" fill="white"/>
<path d="M340 78.2759C340 79.7098 341.164 80.8739 342.598 80.8739C344.032 80.8739 345.196 79.7098 345.196 78.2759C345.196 76.8419 344.032 75.6779 342.598 75.6779C341.164 75.6779 340 76.8419 340 78.2759Z" fill="white"/>
<path d="M320.627 2.598C320.627 4.03191 321.791 5.196 323.225 5.196C324.659 5.196 325.823 4.03191 325.823 2.598C325.823 1.16409 324.659 0 323.225 0C321.791 0 320.627 1.16409 320.627 2.598Z" fill="white"/>
<path d="M301.709 2.598C301.709 4.03191 302.873 5.196 304.307 5.196C305.741 5.196 306.905 4.03191 306.905 2.598C306.905 1.16409 305.741 0 304.307 0C302.873 0 301.709 1.16409 301.709 2.598Z" fill="white"/>
<path d="M282.79 2.598C282.79 4.03191 283.955 5.196 285.388 5.196C286.822 5.196 287.986 4.03191 287.986 2.598C287.986 1.16409 286.822 0 285.388 0C283.951 0 282.79 1.16409 282.79 2.598Z" fill="white"/>
<path d="M263.867 2.598C263.867 4.03191 265.032 5.196 266.467 5.196C267.902 5.196 269.063 4.03191 269.063 2.598C269.063 1.16409 267.902 0 266.467 0C265.028 0 263.867 1.16409 263.867 2.598Z" fill="white"/>
<path d="M244.949 2.598C244.949 4.03191 246.109 5.196 247.547 5.196C248.981 5.196 250.145 4.03191 250.145 2.598C250.145 1.16409 248.981 0 247.547 0C246.113 0 244.949 1.16409 244.949 2.598Z" fill="white"/>
<path d="M226.031 2.598C226.031 4.03191 227.195 5.196 228.629 5.196C230.063 5.196 231.227 4.03191 231.227 2.598C231.227 1.16409 230.063 0 228.629 0C227.195 0 226.031 1.16409 226.031 2.598Z" fill="white"/>
<path d="M207.354 2.598C207.354 4.03191 208.518 5.196 209.952 5.196C211.386 5.196 212.55 4.03191 212.55 2.598C212.55 1.16409 211.386 0 209.952 0C208.518 0 207.354 1.16409 207.354 2.598Z" fill="white"/>
<path d="M188.677 2.598C188.677 4.03191 189.841 5.196 191.275 5.196C192.709 5.196 193.873 4.03191 193.873 2.598C193.873 1.16409 192.709 0 191.275 0C189.841 0 188.677 1.16409 188.677 2.598Z" fill="white"/>
<path d="M170 2.598C170 4.03191 171.164 5.196 172.598 5.196C174.032 5.196 175.196 4.03191 175.196 2.598C175.196 1.16409 174.032 0 172.598 0C171.164 0 170 1.16409 170 2.598Z" fill="white"/>
<path d="M320.627 21.5162C320.627 22.9501 321.791 24.1142 323.225 24.1142C324.659 24.1142 325.823 22.9501 325.823 21.5162C325.823 20.0823 324.659 18.9182 323.225 18.9182C321.791 18.9182 320.627 20.0823 320.627 21.5162Z" fill="white"/>
<path d="M301.709 21.5162C301.709 22.9501 302.873 24.1142 304.307 24.1142C305.74 24.1142 306.905 22.9501 306.905 21.5162C306.905 20.0823 305.74 18.9182 304.307 18.9182C302.873 18.9182 301.709 20.0823 301.709 21.5162Z" fill="white"/>
<path d="M282.79 21.5162C282.79 22.9501 283.955 24.1142 285.388 24.1142C286.822 24.1142 287.986 22.9501 287.986 21.5162C287.986 20.0823 286.822 18.9182 285.388 18.9182C283.951 18.9182 282.79 20.0823 282.79 21.5162Z" fill="white"/>
<path d="M263.867 21.5162C263.867 22.9501 265.032 24.1142 266.467 24.1142C267.902 24.1142 269.063 22.9501 269.063 21.5162C269.063 20.0823 267.902 18.9182 266.467 18.9182C265.028 18.9182 263.867 20.0823 263.867 21.5162Z" fill="white"/>
<path d="M244.949 21.5162C244.949 22.9501 246.109 24.1142 247.547 24.1142C248.981 24.1142 250.145 22.9501 250.145 21.5162C250.145 20.0823 248.981 18.9182 247.547 18.9182C246.113 18.9182 244.949 20.0823 244.949 21.5162Z" fill="white"/>
<path d="M226.031 21.5162C226.031 22.9501 227.195 24.1142 228.629 24.1142C230.063 24.1142 231.227 22.9501 231.227 21.5162C231.227 20.0823 230.063 18.9182 228.629 18.9182C227.195 18.9182 226.031 20.0823 226.031 21.5162Z" fill="white"/>
<path d="M207.354 21.5162C207.354 22.9501 208.518 24.1142 209.952 24.1142C211.386 24.1142 212.55 22.9501 212.55 21.5162C212.55 20.0823 211.386 18.9182 209.952 18.9182C208.518 18.9182 207.354 20.0823 207.354 21.5162Z" fill="white"/>
<path d="M188.677 21.5162C188.677 22.9501 189.841 24.1142 191.275 24.1142C192.709 24.1142 193.873 22.9501 193.873 21.5162C193.873 20.0823 192.709 18.9182 191.275 18.9182C189.841 18.9182 188.677 20.0823 188.677 21.5162Z" fill="white"/>
<path d="M170 21.5162C170 22.9501 171.164 24.1142 172.598 24.1142C174.032 24.1142 175.196 22.9501 175.196 21.5162C175.196 20.0823 174.032 18.9182 172.598 18.9182C171.164 18.9182 170 20.0823 170 21.5162Z" fill="white"/>
<path d="M320.627 40.4341C320.627 41.868 321.791 43.0321 323.225 43.0321C324.659 43.0321 325.823 41.868 325.823 40.4341C325.823 39.0001 324.659 37.8361 323.225 37.8361C321.791 37.8361 320.627 39.0001 320.627 40.4341Z" fill="white"/>
<path d="M301.709 40.4341C301.709 41.868 302.873 43.0321 304.307 43.0321C305.74 43.0321 306.905 41.868 306.905 40.4341C306.905 39.0001 305.74 37.8361 304.307 37.8361C302.873 37.8361 301.709 39.0001 301.709 40.4341Z" fill="white"/>
<path d="M282.79 40.4341C282.79 41.868 283.955 43.0321 285.388 43.0321C286.822 43.0321 287.986 41.868 287.986 40.4341C287.986 39.0001 286.822 37.8361 285.388 37.8361C283.951 37.8361 282.79 39.0001 282.79 40.4341Z" fill="white"/>
<path d="M263.867 40.4341C263.867 41.868 265.032 43.0321 266.467 43.0321C267.902 43.0321 269.063 41.868 269.063 40.4341C269.063 39.0001 267.902 37.8361 266.467 37.8361C265.028 37.8361 263.867 39.0001 263.867 40.4341Z" fill="white"/>
<path d="M244.949 40.4341C244.949 41.868 246.109 43.0321 247.547 43.0321C248.981 43.0321 250.145 41.868 250.145 40.4341C250.145 39.0001 248.981 37.8361 247.547 37.8361C246.113 37.8361 244.949 39.0001 244.949 40.4341Z" fill="white"/>
<path d="M226.031 40.4341C226.031 41.868 227.195 43.0321 228.629 43.0321C230.063 43.0321 231.227 41.868 231.227 40.4341C231.227 39.0001 230.063 37.8361 228.629 37.8361C227.195 37.8361 226.031 39.0001 226.031 40.4341Z" fill="white"/>
<path d="M207.354 40.4341C207.354 41.868 208.518 43.0321 209.952 43.0321C211.386 43.0321 212.55 41.868 212.55 40.4341C212.55 39.0001 211.386 37.8361 209.952 37.8361C208.518 37.8361 207.354 39.0001 207.354 40.4341Z" fill="white"/>
<path d="M188.677 40.4341C188.677 41.868 189.841 43.0321 191.275 43.0321C192.709 43.0321 193.873 41.868 193.873 40.4341C193.873 39.0001 192.709 37.8361 191.275 37.8361C189.841 37.8361 188.677 39.0001 188.677 40.4341Z" fill="white"/>
<path d="M170 40.4341C170 41.868 171.164 43.0321 172.598 43.0321C174.032 43.0321 175.196 41.868 175.196 40.4341C175.196 39.0001 174.032 37.8361 172.598 37.8361C171.164 37.8361 170 39.0001 170 40.4341Z" fill="white"/>
<path d="M320.627 59.3523C320.627 60.7862 321.791 61.9503 323.225 61.9503C324.659 61.9503 325.823 60.7862 325.823 59.3523C325.823 57.9184 324.659 56.7543 323.225 56.7543C321.791 56.7581 320.627 57.9184 320.627 59.3523Z" fill="white"/>
<path d="M301.709 59.3523C301.709 60.7862 302.873 61.9503 304.307 61.9503C305.74 61.9503 306.905 60.7862 306.905 59.3523C306.905 57.9184 305.74 56.7543 304.307 56.7543C302.873 56.7581 301.709 57.9184 301.709 59.3523Z" fill="white"/>
<path d="M282.79 59.3523C282.79 60.7862 283.955 61.9503 285.388 61.9503C286.822 61.9503 287.986 60.7862 287.986 59.3523C287.986 57.9184 286.822 56.7543 285.388 56.7543C283.951 56.7581 282.79 57.9184 282.79 59.3523Z" fill="white"/>
<path d="M263.867 59.3523C263.867 60.7862 265.032 61.9503 266.467 61.9503C267.902 61.9503 269.063 60.7862 269.063 59.3523C269.063 57.9184 267.902 56.7543 266.467 56.7543C265.028 56.7581 263.867 57.9184 263.867 59.3523Z" fill="white"/>
<path d="M244.949 59.3523C244.949 60.7862 246.109 61.9503 247.547 61.9503C248.981 61.9503 250.145 60.7862 250.145 59.3523C250.145 57.9184 248.981 56.7543 247.547 56.7543C246.113 56.7581 244.949 57.9184 244.949 59.3523Z" fill="white"/>
<path d="M226.031 59.3523C226.031 60.7862 227.195 61.9503 228.629 61.9503C230.063 61.9503 231.227 60.7862 231.227 59.3523C231.227 57.9184 230.063 56.7543 228.629 56.7543C227.195 56.7581 226.031 57.9184 226.031 59.3523Z" fill="white"/>
<path d="M207.354 59.3523C207.354 60.7862 208.518 61.9503 209.952 61.9503C211.386 61.9503 212.55 60.7862 212.55 59.3523C212.55 57.9184 211.386 56.7543 209.952 56.7543C208.518 56.7581 207.354 57.9184 207.354 59.3523Z" fill="white"/>
<path d="M188.677 59.3523C188.677 60.7862 189.841 61.9503 191.275 61.9503C192.709 61.9503 193.873 60.7862 193.873 59.3523C193.873 57.9184 192.709 56.7543 191.275 56.7543C189.841 56.7581 188.677 57.9184 188.677 59.3523Z" fill="white"/>
<path d="M170 59.3523C170 60.7862 171.164 61.9503 172.598 61.9503C174.032 61.9503 175.196 60.7862 175.196 59.3523C175.196 57.9184 174.032 56.7543 172.598 56.7543C171.164 56.7581 170 57.9184 170 59.3523Z" fill="white"/>
<path d="M320.627 78.2759C320.627 79.7098 321.791 80.8739 323.225 80.8739C324.659 80.8739 325.823 79.7098 325.823 78.2759C325.823 76.8419 324.659 75.6779 323.225 75.6779C321.791 75.6779 320.627 76.8419 320.627 78.2759Z" fill="white"/>
<path d="M301.709 78.2759C301.709 79.7098 302.873 80.8739 304.307 80.8739C305.74 80.8739 306.905 79.7098 306.905 78.2759C306.905 76.8419 305.74 75.6779 304.307 75.6779C302.873 75.6779 301.709 76.8419 301.709 78.2759Z" fill="white"/>
<path d="M282.79 78.2759C282.79 79.7098 283.955 80.8739 285.388 80.8739C286.822 80.8739 287.986 79.7098 287.986 78.2759C287.986 76.8419 286.822 75.6779 285.388 75.6779C283.951 75.6779 282.79 76.8419 282.79 78.2759Z" fill="white"/>
<path d="M263.867 78.2759C263.867 79.7098 265.032 80.8739 266.467 80.8739C267.902 80.8739 269.063 79.7098 269.063 78.2759C269.063 76.8419 267.902 75.6779 266.467 75.6779C265.028 75.6779 263.867 76.8419 263.867 78.2759Z" fill="white"/>
<path d="M244.949 78.2759C244.949 79.7098 246.109 80.8739 247.547 80.8739C248.981 80.8739 250.145 79.7098 250.145 78.2759C250.145 76.8419 248.981 75.6779 247.547 75.6779C246.113 75.6779 244.949 76.8419 244.949 78.2759Z" fill="white"/>
<path d="M226.031 78.2759C226.031 79.7098 227.195 80.8739 228.629 80.8739C230.063 80.8739 231.227 79.7098 231.227 78.2759C231.227 76.8419 230.063 75.6779 228.629 75.6779C227.195 75.6779 226.031 76.8419 226.031 78.2759Z" fill="white"/>
<path d="M207.354 78.2759C207.354 79.7098 208.518 80.8739 209.952 80.8739C211.386 80.8739 212.55 79.7098 212.55 78.2759C212.55 76.8419 211.386 75.6779 209.952 75.6779C208.518 75.6779 207.354 76.8419 207.354 78.2759Z" fill="white"/>
<path d="M188.677 78.2759C188.677 79.7098 189.841 80.8739 191.275 80.8739C192.709 80.8739 193.873 79.7098 193.873 78.2759C193.873 76.8419 192.709 75.6779 191.275 75.6779C189.841 75.6779 188.677 76.8419 188.677 78.2759Z" fill="white"/>
<path d="M170 78.2759C170 79.7098 171.164 80.8739 172.598 80.8739C174.032 80.8739 175.196 79.7098 175.196 78.2759C175.196 76.8419 174.032 75.6779 172.598 75.6779C171.164 75.6779 170 76.8419 170 78.2759Z" fill="white"/>
</g>
</svg>
