<svg width="15" height="9" viewBox="0 0 15 9" fill="none" xmlns="http://www.w3.org/2000/svg">
<path d="M14.888 4.20688C14.7541 4.05753 11.5336 0.544922 7.49998 0.544922C3.46633 0.544922 0.245902 4.05753 0.111986 4.20688C-0.0373694 4.37382 -0.0373694 4.62618 0.111986 4.79312C0.245902 4.94247 3.46639 8.45508 7.49998 8.45508C11.5336 8.45508 14.7541 4.94247 14.888 4.79312C15.0373 4.62618 15.0373 4.37382 14.888 4.20688ZM7.49998 7.57617C5.80396 7.57617 4.42381 6.19603 4.42381 4.5C4.42381 2.80397 5.80396 1.42383 7.49998 1.42383C9.19601 1.42383 10.5762 2.80397 10.5762 4.5C10.5762 6.19603 9.19601 7.57617 7.49998 7.57617Z" fill="#9EA4A8"/>
<path d="M7.93945 3.62109C7.93945 3.179 8.15892 2.79009 8.49278 2.55088C8.19319 2.39751 7.85903 2.30273 7.5 2.30273C6.28849 2.30273 5.30273 3.28849 5.30273 4.5C5.30273 5.71151 6.28849 6.69727 7.5 6.69727C8.58469 6.69727 9.48246 5.90525 9.65982 4.87037C8.77488 5.15528 7.93945 4.486 7.93945 3.62109Z" fill="#9EA4A8"/>
</svg>
