<svg width="10" height="16" viewBox="0 0 10 16" fill="none" xmlns="http://www.w3.org/2000/svg">
<path d="M8.24252 0.40271H6.34407C4.79026 0.40271 3.52611 1.66686 3.52611 3.22067V5.35636H1.75749C1.31513 5.35636 0.956604 5.71489 0.956604 6.15725C0.956604 6.5996 1.31513 6.95813 1.75749 6.95813H3.52611V14.3737C3.52611 14.8161 3.88464 15.1746 4.32699 15.1746C4.76935 15.1746 5.12788 14.8161 5.12788 14.3737V6.95813H7.86424C8.30659 6.95813 8.66512 6.5996 8.66512 6.15725C8.66512 5.71489 8.30659 5.35636 7.86424 5.35636H5.12788V3.22067C5.12788 2.55006 5.67346 2.00448 6.34407 2.00448H8.24243C8.68479 2.00448 9.04332 1.64595 9.04332 1.20359C9.04332 0.761239 8.68479 0.40271 8.24252 0.40271Z" fill="#fff"/>
</svg>
