<svg width="14" height="14" viewBox="0 0 14 14" fill="none" xmlns="http://www.w3.org/2000/svg">
<path d="M0.961573 9.7769L3.2167 9.74685C3.37076 9.74506 3.49498 9.62042 3.49639 9.46635L3.53384 5.65836L11.6872 13.8117C11.7978 13.9223 11.9773 13.9223 12.0878 13.8117L13.6906 12.2089C13.8012 12.0983 13.8012 11.9188 13.6906 11.8082L5.5373 3.6549L9.34529 3.61745C9.49917 3.61585 9.62358 3.49182 9.62558 3.33797L9.65563 1.08284C9.65683 1.00633 9.62698 0.93277 9.57289 0.878677C9.5188 0.824583 9.44505 0.79493 9.36872 0.79594L1.06495 0.906734C0.988221 0.90772 0.918702 0.939204 0.868411 0.989494C0.817933 1.03997 0.786684 1.1093 0.785464 1.18622L0.674669 9.48999C0.67366 9.56632 0.703524 9.63986 0.757618 9.69395C0.811711 9.74804 0.885245 9.77791 0.961573 9.7769Z" fill="#5E875F"/>
</svg>
