<svg width="13" height="13" viewBox="0 0 13 13" fill="none" xmlns="http://www.w3.org/2000/svg">
<path d="M1.26231 3.77814C0.819956 3.77814 0.461426 4.13667 0.461426 4.57902V11.2009C0.461426 11.6433 0.819956 12.0018 1.26231 12.0018C1.70467 12.0018 2.0632 11.6433 2.0632 11.2009V4.57902C2.0632 4.13667 1.70467 3.77814 1.26231 3.77814Z" fill="#fff"/>
<path d="M1.26231 0.0402222C1.05141 0.0402222 0.844962 0.12565 0.696353 0.275148C0.546854 0.423757 0.461426 0.630208 0.461426 0.841108C0.461426 1.05201 0.546854 1.25837 0.696353 1.40796C0.844962 1.55657 1.05141 1.64199 1.26231 1.64199C1.47321 1.64199 1.67966 1.55657 1.82827 1.40796C1.97777 1.25837 2.0632 1.05201 2.0632 0.841108C2.0632 0.630208 1.97777 0.423757 1.82827 0.275148C1.67966 0.12565 1.47321 0.0402222 1.26231 0.0402222Z" fill="#fff"/>
<path d="M8.18073 4.40105C7.34247 4.40105 6.56659 4.67121 5.9338 5.12798V4.57902C5.9338 4.13667 5.57527 3.77814 5.13292 3.77814C4.69056 3.77814 4.33203 4.13667 4.33203 4.57902V11.2009C4.33203 11.6433 4.69056 12.0018 5.13292 12.0018C5.57527 12.0018 5.9338 11.6433 5.9338 11.2009V8.24974C5.9338 7.01078 6.94176 6.00282 8.18073 6.00282C9.4197 6.00282 10.4277 7.01078 10.4277 8.24974V11.3789C10.4277 11.8212 10.7862 12.1798 11.2285 12.1798C11.6709 12.1798 12.0294 11.8212 12.0294 11.3789V8.24974C12.0294 6.12758 10.3029 4.40105 8.18073 4.40105Z" fill="#fff"/>
</svg>
