<svg width="16" height="18" viewBox="0 0 16 18" fill="none" xmlns="http://www.w3.org/2000/svg">
<path fill-rule="evenodd" clip-rule="evenodd" d="M2.44128 12.8573L3.45271 11.8441C3.77671 11.5201 3.955 11.0898 3.955 10.6321V6.62327C3.955 5.46013 4.46071 4.34841 5.34357 3.57527C6.23328 2.79527 7.36642 2.45241 8.54671 2.60755C10.5413 2.87241 12.0456 4.67584 12.0456 6.80327V10.6321C12.0456 11.0898 12.2239 11.5201 12.547 11.8433L13.5593 12.8573H2.44128ZM9.71396 14.8637C9.71396 15.6343 8.92882 16.2857 7.99968 16.2857C7.07054 16.2857 6.28539 15.6343 6.28539 14.8637V14.5714H9.71396V14.8637ZM15.3034 12.1786L13.7597 10.6323V6.80342C13.7597 3.8197 11.6152 1.28513 8.77116 0.908847C7.12373 0.689418 5.46087 1.19256 4.21373 2.28628C2.95887 3.38513 2.24059 4.9657 2.24059 6.62342L2.23973 10.6323L0.696015 12.1786C0.294015 12.5814 0.174872 13.1806 0.392587 13.706C0.611158 14.2323 1.11944 14.5717 1.68859 14.5717H4.57116V14.864C4.57116 16.5937 6.10887 18.0003 7.99973 18.0003C9.89059 18.0003 11.4283 16.5937 11.4283 14.864V14.5717H14.3109C14.88 14.5717 15.3874 14.2323 15.6052 13.7068C15.8237 13.1806 15.7054 12.5806 15.3034 12.1786Z" fill="#131313"/>
<mask id="mask0" mask-type="alpha" maskUnits="userSpaceOnUse" x="0" y="0" width="16" height="19">
<path fill-rule="evenodd" clip-rule="evenodd" d="M2.44128 12.8573L3.45271 11.8441C3.77671 11.5201 3.955 11.0898 3.955 10.6321V6.62327C3.955 5.46013 4.46071 4.34841 5.34357 3.57527C6.23328 2.79527 7.36642 2.45241 8.54671 2.60755C10.5413 2.87241 12.0456 4.67584 12.0456 6.80327V10.6321C12.0456 11.0898 12.2239 11.5201 12.547 11.8433L13.5593 12.8573H2.44128ZM9.71396 14.8637C9.71396 15.6343 8.92882 16.2857 7.99968 16.2857C7.07054 16.2857 6.28539 15.6343 6.28539 14.8637V14.5714H9.71396V14.8637ZM15.3034 12.1786L13.7597 10.6323V6.80342C13.7597 3.8197 11.6152 1.28513 8.77116 0.908847C7.12373 0.689418 5.46087 1.19256 4.21373 2.28628C2.95887 3.38513 2.24059 4.9657 2.24059 6.62342L2.23973 10.6323L0.696015 12.1786C0.294015 12.5814 0.174872 13.1806 0.392587 13.706C0.611158 14.2323 1.11944 14.5717 1.68859 14.5717H4.57116V14.864C4.57116 16.5937 6.10887 18.0003 7.99973 18.0003C9.89059 18.0003 11.4283 16.5937 11.4283 14.864V14.5717H14.3109C14.88 14.5717 15.3874 14.2323 15.6052 13.7068C15.8237 13.1806 15.7054 12.5806 15.3034 12.1786Z" fill="white"/>
</mask>
<g mask="url(#mask0)">
</g>
</svg>
