<svg width="23" height="23" viewBox="0 0 23 23" fill="none" xmlns="http://www.w3.org/2000/svg">
<path d="M14.6618 10.594L10.0832 7.26565C9.9152 7.14385 9.69213 7.12551 9.50796 7.22016C9.32232 7.31408 9.20639 7.50486 9.20639 7.71104V14.3654C9.20639 14.5738 9.32232 14.7639 9.50796 14.8578C9.58647 14.8974 9.67232 14.9172 9.75891 14.9172C9.8719 14.9172 9.98637 14.8813 10.0832 14.8101L14.6618 11.4847C14.8064 11.3783 14.8908 11.214 14.8908 11.0393C14.8915 10.8618 14.8049 10.6981 14.6618 10.594Z" fill="#C9485B"/>
<path d="M11.0254 0.00201416C4.93522 0.00201416 0 4.93724 0 11.0274C0 17.1153 4.93522 22.0491 11.0254 22.0491C17.114 22.0491 22.05 17.1146 22.05 11.0274C22.0507 4.93724 17.114 0.00201416 11.0254 0.00201416ZM11.0254 20.2096C5.95367 20.2096 1.84172 16.0998 1.84172 11.0274C1.84172 5.95715 5.95367 1.84227 11.0254 1.84227C16.0963 1.84227 20.2075 5.95642 20.2075 11.0274C20.2083 16.0998 16.0963 20.2096 11.0254 20.2096Z" fill="#C9485B"/>
</svg>
