<svg width="15" height="14" viewBox="0 0 15 14" fill="none" xmlns="http://www.w3.org/2000/svg">
<path d="M13.7958 4.2231L11.5406 4.25315C11.3866 4.25494 11.2623 4.37958 11.2609 4.53365L11.2235 8.34164L3.07016 0.188311C2.95957 0.0777287 2.78006 0.0777283 2.66948 0.18831L1.06669 1.79109C0.956112 1.90168 0.956112 2.08119 1.06669 2.19177L9.22002 10.3451L5.41203 10.3825C5.25816 10.3841 5.13374 10.5082 5.13175 10.662L5.1017 12.9172C5.1005 12.9937 5.13034 13.0672 5.18443 13.1213C5.23853 13.1754 5.31227 13.2051 5.3886 13.2041L13.6924 13.0933C13.7691 13.0923 13.8386 13.0608 13.8889 13.0105C13.9394 12.96 13.9706 12.8907 13.9719 12.8138L14.0827 4.51001C14.0837 4.43368 14.0538 4.36014 13.9997 4.30605C13.9456 4.25196 13.8721 4.22209 13.7958 4.2231Z" fill="#C54A5C"/>
</svg>
